<mxfile host="app.diagrams.net" agent="Mozilla/5.0 (Windows NT 10.0; Win64; x64) AppleWebKit/537.36 (KHTML, like Gecko) Chrome/131.0.0.0 Safari/537.36" version="26.0.4">
  <diagram name="第 1 页" id="RCwNGJFsyMsz7Nk2K8cK">
    <mxGraphModel dx="819" dy="422" grid="1" gridSize="10" guides="1" tooltips="1" connect="1" arrows="1" fold="1" page="1" pageScale="1" pageWidth="827" pageHeight="1169" math="0" shadow="0">
      <root>
        <mxCell id="0" />
        <mxCell id="1" parent="0" />
        <mxCell id="3ZA38Qdof7UkEv3v06N_-11" style="edgeStyle=orthogonalEdgeStyle;rounded=0;orthogonalLoop=1;jettySize=auto;html=1;" edge="1" parent="1" source="3ZA38Qdof7UkEv3v06N_-2" target="3ZA38Qdof7UkEv3v06N_-3">
          <mxGeometry relative="1" as="geometry" />
        </mxCell>
        <mxCell id="3ZA38Qdof7UkEv3v06N_-2" value="开始" style="strokeWidth=1;html=1;shape=mxgraph.flowchart.start_1;whiteSpace=wrap;fontSize=14;fillColor=#f5f5f5;gradientColor=#b3b3b3;strokeColor=#666666;" vertex="1" parent="1">
          <mxGeometry x="70" y="40" width="60" height="30" as="geometry" />
        </mxCell>
        <mxCell id="3ZA38Qdof7UkEv3v06N_-12" style="edgeStyle=orthogonalEdgeStyle;rounded=0;orthogonalLoop=1;jettySize=auto;html=1;" edge="1" parent="1" source="3ZA38Qdof7UkEv3v06N_-3" target="3ZA38Qdof7UkEv3v06N_-4">
          <mxGeometry relative="1" as="geometry" />
        </mxCell>
        <mxCell id="3ZA38Qdof7UkEv3v06N_-3" value="逻辑综合" style="rounded=1;whiteSpace=wrap;html=1;absoluteArcSize=1;arcSize=14;strokeWidth=1;fontSize=14;fillColor=#fff2cc;gradientColor=#ffd966;strokeColor=#d6b656;" vertex="1" parent="1">
          <mxGeometry x="60" y="100" width="80" height="30" as="geometry" />
        </mxCell>
        <mxCell id="3ZA38Qdof7UkEv3v06N_-13" style="edgeStyle=orthogonalEdgeStyle;rounded=0;orthogonalLoop=1;jettySize=auto;html=1;" edge="1" parent="1" source="3ZA38Qdof7UkEv3v06N_-4" target="3ZA38Qdof7UkEv3v06N_-9">
          <mxGeometry relative="1" as="geometry" />
        </mxCell>
        <mxCell id="3ZA38Qdof7UkEv3v06N_-4" value="技术映射" style="rounded=1;whiteSpace=wrap;html=1;absoluteArcSize=1;arcSize=14;strokeWidth=1;fontSize=14;fillColor=#fff2cc;gradientColor=#ffd966;strokeColor=#d6b656;" vertex="1" parent="1">
          <mxGeometry x="60" y="160" width="80" height="30" as="geometry" />
        </mxCell>
        <mxCell id="3ZA38Qdof7UkEv3v06N_-15" style="edgeStyle=orthogonalEdgeStyle;rounded=0;orthogonalLoop=1;jettySize=auto;html=1;fillColor=#ffcd28;gradientColor=#ffa500;strokeColor=#000000;" edge="1" parent="1" source="3ZA38Qdof7UkEv3v06N_-5" target="3ZA38Qdof7UkEv3v06N_-6">
          <mxGeometry relative="1" as="geometry" />
        </mxCell>
        <mxCell id="3ZA38Qdof7UkEv3v06N_-5" value="分割" style="rounded=1;whiteSpace=wrap;html=1;absoluteArcSize=1;arcSize=14;strokeWidth=1;fontSize=14;fillColor=#ffcd28;gradientColor=#ffa500;strokeColor=#d79b00;" vertex="1" parent="1">
          <mxGeometry x="200" y="130" width="60" height="30" as="geometry" />
        </mxCell>
        <mxCell id="3ZA38Qdof7UkEv3v06N_-16" style="edgeStyle=orthogonalEdgeStyle;rounded=0;orthogonalLoop=1;jettySize=auto;html=1;fillColor=#ffcd28;gradientColor=#ffa500;strokeColor=#000000;" edge="1" parent="1" source="3ZA38Qdof7UkEv3v06N_-6" target="3ZA38Qdof7UkEv3v06N_-7">
          <mxGeometry relative="1" as="geometry" />
        </mxCell>
        <mxCell id="3ZA38Qdof7UkEv3v06N_-6" value="布局" style="rounded=1;whiteSpace=wrap;html=1;absoluteArcSize=1;arcSize=14;strokeWidth=1;fontSize=14;fillColor=#fff2cc;gradientColor=#ffd966;strokeColor=#d6b656;" vertex="1" parent="1">
          <mxGeometry x="200" y="190" width="60" height="30" as="geometry" />
        </mxCell>
        <mxCell id="3ZA38Qdof7UkEv3v06N_-17" style="edgeStyle=orthogonalEdgeStyle;rounded=0;orthogonalLoop=1;jettySize=auto;html=1;fillColor=#ffcd28;gradientColor=#ffa500;strokeColor=#000000;" edge="1" parent="1" source="3ZA38Qdof7UkEv3v06N_-7" target="3ZA38Qdof7UkEv3v06N_-8">
          <mxGeometry relative="1" as="geometry" />
        </mxCell>
        <mxCell id="3ZA38Qdof7UkEv3v06N_-7" value="调度" style="rounded=1;whiteSpace=wrap;html=1;absoluteArcSize=1;arcSize=14;strokeWidth=1;fontSize=14;fillColor=#ffcd28;gradientColor=#ffa500;strokeColor=#d79b00;" vertex="1" parent="1">
          <mxGeometry x="200" y="250" width="60" height="30" as="geometry" />
        </mxCell>
        <mxCell id="3ZA38Qdof7UkEv3v06N_-8" value="布线" style="rounded=1;whiteSpace=wrap;html=1;absoluteArcSize=1;arcSize=14;strokeWidth=1;fontSize=14;fillColor=#fff2cc;gradientColor=#ffd966;strokeColor=#d6b656;" vertex="1" parent="1">
          <mxGeometry x="200" y="310" width="60" height="30" as="geometry" />
        </mxCell>
        <mxCell id="3ZA38Qdof7UkEv3v06N_-14" style="edgeStyle=orthogonalEdgeStyle;rounded=0;orthogonalLoop=1;jettySize=auto;html=1;" edge="1" parent="1" source="3ZA38Qdof7UkEv3v06N_-9" target="3ZA38Qdof7UkEv3v06N_-19">
          <mxGeometry relative="1" as="geometry" />
        </mxCell>
        <mxCell id="3ZA38Qdof7UkEv3v06N_-9" value="三维调度" style="rounded=1;whiteSpace=wrap;html=1;absoluteArcSize=1;arcSize=14;strokeWidth=1;fontSize=14;fillColor=#ffcd28;gradientColor=#ffa500;strokeColor=#d79b00;" vertex="1" parent="1">
          <mxGeometry x="60" y="220" width="80" height="30" as="geometry" />
        </mxCell>
        <mxCell id="3ZA38Qdof7UkEv3v06N_-10" value="完成" style="strokeWidth=1;html=1;shape=mxgraph.flowchart.terminator;whiteSpace=wrap;fontSize=14;fillColor=#f5f5f5;gradientColor=#b3b3b3;strokeColor=#666666;" vertex="1" parent="1">
          <mxGeometry x="70" y="340" width="60" height="30" as="geometry" />
        </mxCell>
        <mxCell id="3ZA38Qdof7UkEv3v06N_-20" style="edgeStyle=orthogonalEdgeStyle;rounded=0;orthogonalLoop=1;jettySize=auto;html=1;" edge="1" parent="1" source="3ZA38Qdof7UkEv3v06N_-19" target="3ZA38Qdof7UkEv3v06N_-10">
          <mxGeometry relative="1" as="geometry" />
        </mxCell>
        <mxCell id="3ZA38Qdof7UkEv3v06N_-19" value="指令生成" style="rounded=1;whiteSpace=wrap;html=1;absoluteArcSize=1;arcSize=14;strokeWidth=1;fontSize=14;fillColor=#fff2cc;gradientColor=#ffd966;strokeColor=#d6b656;" vertex="1" parent="1">
          <mxGeometry x="60" y="280" width="80" height="30" as="geometry" />
        </mxCell>
        <mxCell id="3ZA38Qdof7UkEv3v06N_-22" value="RTL代码" style="text;html=1;align=center;verticalAlign=middle;whiteSpace=wrap;rounded=0;fontSize=14;" vertex="1" parent="1">
          <mxGeometry x="100" y="70" width="80" height="30" as="geometry" />
        </mxCell>
        <mxCell id="3ZA38Qdof7UkEv3v06N_-23" value="门级网表" style="text;html=1;align=center;verticalAlign=middle;whiteSpace=wrap;rounded=0;fontSize=14;" vertex="1" parent="1">
          <mxGeometry x="100" y="130" width="80" height="30" as="geometry" />
        </mxCell>
        <mxCell id="3ZA38Qdof7UkEv3v06N_-24" value="LUT网表" style="text;html=1;align=center;verticalAlign=middle;whiteSpace=wrap;rounded=0;fontSize=14;" vertex="1" parent="1">
          <mxGeometry x="100" y="190" width="80" height="30" as="geometry" />
        </mxCell>
        <mxCell id="3ZA38Qdof7UkEv3v06N_-25" value="EP任务集" style="text;html=1;align=center;verticalAlign=middle;whiteSpace=wrap;rounded=0;fontSize=14;" vertex="1" parent="1">
          <mxGeometry x="100" y="250" width="80" height="30" as="geometry" />
        </mxCell>
        <mxCell id="3ZA38Qdof7UkEv3v06N_-26" value="EP指令程序" style="text;html=1;align=center;verticalAlign=middle;whiteSpace=wrap;rounded=0;fontSize=14;" vertex="1" parent="1">
          <mxGeometry x="100" y="310" width="80" height="30" as="geometry" />
        </mxCell>
        <mxCell id="3ZA38Qdof7UkEv3v06N_-27" value="" style="shape=curlyBracket;whiteSpace=wrap;html=1;rounded=1;labelPosition=left;verticalLabelPosition=middle;align=right;verticalAlign=middle;fillColor=#ffcd28;gradientColor=#ffa500;strokeColor=#d79b00;" vertex="1" parent="1">
          <mxGeometry x="170" y="140" width="30" height="190" as="geometry" />
        </mxCell>
      </root>
    </mxGraphModel>
  </diagram>
</mxfile>
